<svg width="29" height="29" viewBox="0 0 29 29" fill="none" xmlns="http://www.w3.org/2000/svg">
<mask id="mask0_1_185" style="mask-type:alpha" maskUnits="userSpaceOnUse" x="8" y="0" width="21" height="29">
<path d="M16.3925 0.0791016C15.3336 0.0791016 14.3313 0.304275 13.3857 0.754208C12.3831 1.24679 11.5115 1.88742 10.7702 2.67507C10.0289 3.46343 9.43979 4.34984 9.00213 5.33522C8.56416 6.32008 8.33847 7.28423 8.32404 8.22686V13.9892V26.9599C8.32404 28.0094 9.17745 28.86 10.2306 28.86H12.0432H25.0001H26.8127C27.8649 28.86 28.7183 28.0094 28.7183 26.9599C28.7183 25.9109 27.8649 25.0602 26.8127 25.0602H25.0001H12.1363V13.9892V8.33256C12.1363 7.72702 12.2594 7.154 12.5069 6.61182C12.7534 6.06964 13.0818 5.59528 13.4912 5.18738C13.9007 4.77906 14.3705 4.45554 14.8999 4.21629C15.4292 3.97703 15.976 3.85704 16.5408 3.85704L19.0175 3.85912V9.73557L22.8289 9.7395V1.9367C22.8289 1.68327 22.7795 1.44412 22.6811 1.21915C22.5821 0.994082 22.4477 0.796861 22.2786 0.6278C22.1088 0.459153 21.908 0.325602 21.6751 0.227147C21.4423 0.128484 21.1984 0.0791016 20.9446 0.0791016H16.3925Z" fill="white"/>
</mask>
<g mask="url(#mask0_1_185)">
<path fill-rule="evenodd" clip-rule="evenodd" d="M16.3925 0.0791016C15.3336 0.0791016 14.3313 0.304275 13.3857 0.754208C12.3831 1.24679 11.5115 1.88742 10.7702 2.67507C10.0289 3.46343 9.43979 4.34984 9.00213 5.33522C8.56416 6.32008 8.33847 7.28423 8.32404 8.22686V13.9892V26.9599C8.32404 28.0094 9.17745 28.86 10.2306 28.86H12.0432H25.0001H26.8127C27.8649 28.86 28.7183 28.0094 28.7183 26.9599C28.7183 25.9109 27.8649 25.0602 26.8127 25.0602H25.0001H12.1363V13.9892V8.33256C12.1363 7.72702 12.2594 7.154 12.5069 6.61182C12.7534 6.06964 13.0818 5.59528 13.4912 5.18738C13.9007 4.77906 14.3705 4.45554 14.8999 4.21629C15.4292 3.97703 15.976 3.85704 16.5408 3.85704L19.0175 3.85912V9.73557L22.8289 9.7395V1.9367C22.8289 1.68327 22.7795 1.44412 22.6811 1.21915C22.5821 0.994082 22.4477 0.796861 22.2786 0.6278C22.1088 0.459153 21.908 0.325602 21.6751 0.227147C21.4423 0.128484 21.1984 0.0791016 20.9446 0.0791016H16.3925Z" fill="url(#paint0_linear_1_185)"/>
</g>
<mask id="mask1_1_185" style="mask-type:alpha" maskUnits="userSpaceOnUse" x="0" y="2" width="23" height="27">
<path d="M19.0771 2.6048V9.85072L14.9711 9.85466H8.16353C7.10448 9.85466 6.10224 10.0796 5.1566 10.5303C4.15395 11.0222 3.28247 11.6629 2.54122 12.4512C1.79977 13.2389 1.21058 14.1251 0.773024 15.1107C0.334946 16.096 0.109468 17.06 0.0950317 18.0022V22.0894V23.7653V27.0751C0.0950317 28.1246 0.948442 28.9751 2.00147 28.9751C3.05377 28.9751 3.90718 28.1246 3.90718 27.0751V23.7653V22.0894V18.1077C3.90718 17.5028 4.03025 16.9291 4.27764 16.3879C4.52421 15.8458 4.85282 15.3715 5.26223 14.9626C5.67164 14.5544 6.14129 14.2314 6.67077 13.9922C7.20024 13.7525 7.74695 13.633 8.31164 13.633L15.1996 13.6292H21.0043C21.5268 13.6292 21.9713 13.4464 22.3383 13.0807C22.7054 12.7143 22.8886 12.2645 22.8886 11.7289V2.6048H19.0771Z" fill="white"/>
</mask>
<g mask="url(#mask1_1_185)">
<path fill-rule="evenodd" clip-rule="evenodd" d="M19.0771 2.6048V9.85072L14.9711 9.85466H8.16353C7.10448 9.85466 6.10224 10.0796 5.1566 10.5303C4.15395 11.0222 3.28247 11.6629 2.54122 12.4512C1.79977 13.2389 1.21058 14.1251 0.773024 15.1107C0.334946 16.096 0.109468 17.06 0.0950317 18.0022V22.0894V23.7653V27.0751C0.0950317 28.1246 0.948442 28.9751 2.00147 28.9751C3.05377 28.9751 3.90718 28.1246 3.90718 27.0751V23.7653V22.0894V18.1077C3.90718 17.5028 4.03025 16.9291 4.27764 16.3879C4.52421 15.8458 4.85282 15.3715 5.26223 14.9626C5.67164 14.5544 6.14129 14.2314 6.67077 13.9922C7.20024 13.7525 7.74695 13.633 8.31164 13.633L15.1996 13.6292H21.0043C21.5268 13.6292 21.9713 13.4464 22.3383 13.0807C22.7054 12.7143 22.8886 12.2645 22.8886 11.7289V2.6048H19.0771Z" fill="url(#paint1_linear_1_185)"/>
</g>
<path fill-rule="evenodd" clip-rule="evenodd" d="M22.959 19.1579C22.959 20.2064 22.1069 21.0577 21.0541 21.0577C20.0011 21.0577 19.1477 20.2064 19.1477 19.1579C19.1477 18.1089 20.0011 17.2582 21.0541 17.2582C22.1069 17.2582 22.959 18.1089 22.959 19.1579Z" fill="#F39318"/>
<path fill-rule="evenodd" clip-rule="evenodd" d="M27.8088 19.1579C27.8088 20.2064 26.9571 21.0577 25.9039 21.0577C24.8509 21.0577 23.9975 20.2064 23.9975 19.1579C23.9975 18.1089 24.8509 17.2582 25.9039 17.2582C26.9571 17.2582 27.8088 18.1089 27.8088 19.1579Z" fill="#F39318"/>
<defs>
<linearGradient id="paint0_linear_1_185" x1="18.5212" y1="4.89331" x2="18.5212" y2="28.86" gradientUnits="userSpaceOnUse">
<stop stop-color="#E8431C"/>
<stop offset="1" stop-color="#F39318"/>
</linearGradient>
<linearGradient id="paint1_linear_1_185" x1="11.4918" y1="2.6048" x2="11.4918" y2="18.835" gradientUnits="userSpaceOnUse">
<stop stop-color="#E8431C"/>
<stop offset="1" stop-color="#B10A2E"/>
</linearGradient>
</defs>
</svg>
